<svg xmlns="http://www.w3.org/2000/svg" width="720" height="1080" viewBox="0 0 720 1080" role="img" aria-labelledby="title desc">
  <title id="title">HC Corp Static QR</title>
  <desc id="desc">Static QR payment card for HC Corp with a decorative QR preview.</desc>
  <rect width="720" height="1080" fill="#f5f7fa"/>
  <rect x="62" y="44" width="596" height="992" rx="36" fill="#ffffff" stroke="#d8e0e8" stroke-width="4"/>
  <text x="360" y="150" text-anchor="middle" font-family="Arial, sans-serif" font-size="68" font-weight="700" fill="#18323c">HC Corp</text>
  <text x="360" y="228" text-anchor="middle" font-family="Arial, sans-serif" font-size="42" fill="#40505b">AR••Y BA•••••A</text>
  <text x="360" y="292" text-anchor="middle" font-family="Arial, sans-serif" font-size="42" fill="#40505b">••••••••••815</text>

  <rect x="173" y="355" width="374" height="374" rx="12" fill="#ffffff" stroke="#dce3ea" stroke-width="4"/>

  <g fill="#111111">
    <rect x="190" y="372" width="78" height="78"/>
    <rect x="204" y="386" width="50" height="50" fill="#ffffff"/>
    <rect x="218" y="400" width="22" height="22"/>
    <rect x="452" y="372" width="78" height="78"/>
    <rect x="466" y="386" width="50" height="50" fill="#ffffff"/>
    <rect x="480" y="400" width="22" height="22"/>
    <rect x="190" y="634" width="78" height="78"/>
    <rect x="204" y="648" width="50" height="50" fill="#ffffff"/>
    <rect x="218" y="662" width="22" height="22"/>

    <rect x="290" y="382" width="18" height="18"/>
    <rect x="326" y="382" width="18" height="18"/>
    <rect x="344" y="382" width="18" height="18"/>
    <rect x="380" y="382" width="18" height="18"/>
    <rect x="416" y="382" width="18" height="18"/>

    <rect x="290" y="418" width="18" height="18"/>
    <rect x="308" y="436" width="18" height="18"/>
    <rect x="344" y="418" width="18" height="18"/>
    <rect x="362" y="436" width="18" height="18"/>
    <rect x="398" y="418" width="18" height="18"/>
    <rect x="434" y="436" width="18" height="18"/>

    <rect x="290" y="472" width="18" height="18"/>
    <rect x="326" y="472" width="18" height="18"/>
    <rect x="362" y="472" width="18" height="18"/>
    <rect x="398" y="472" width="18" height="18"/>
    <rect x="434" y="472" width="18" height="18"/>

    <rect x="290" y="508" width="18" height="18"/>
    <rect x="308" y="544" width="18" height="18"/>
    <rect x="344" y="526" width="18" height="18"/>
    <rect x="380" y="508" width="18" height="18"/>
    <rect x="416" y="544" width="18" height="18"/>
    <rect x="434" y="526" width="18" height="18"/>

    <rect x="290" y="580" width="18" height="18"/>
    <rect x="326" y="598" width="18" height="18"/>
    <rect x="344" y="562" width="18" height="18"/>
    <rect x="380" y="580" width="18" height="18"/>
    <rect x="398" y="616" width="18" height="18"/>
    <rect x="434" y="580" width="18" height="18"/>

    <rect x="290" y="634" width="18" height="18"/>
    <rect x="326" y="652" width="18" height="18"/>
    <rect x="362" y="634" width="18" height="18"/>
    <rect x="398" y="652" width="18" height="18"/>
    <rect x="434" y="634" width="18" height="18"/>

    <rect x="272" y="454" width="18" height="18"/>
    <rect x="452" y="454" width="18" height="18"/>
    <rect x="272" y="562" width="18" height="18"/>
    <rect x="470" y="562" width="18" height="18"/>
    <rect x="272" y="598" width="18" height="18"/>
    <rect x="470" y="616" width="18" height="18"/>
  </g>

  <rect x="298" y="492" width="124" height="92" rx="14" fill="#ffffff" stroke="#dbe2ea" stroke-width="3"/>
  <text x="360" y="538" text-anchor="middle" font-family="Arial, sans-serif" font-size="32" font-weight="700" fill="#2d5fd1">insta</text>
  <text x="360" y="575" text-anchor="middle" font-family="Arial, sans-serif" font-size="32" font-weight="700" fill="#e43d30">Pay</text>

  <text x="360" y="844" text-anchor="middle" font-family="Arial, sans-serif" font-size="34" fill="#65717b">Transfer fees may apply</text>
</svg>
